<svg xmlns="http://www.w3.org/2000/svg" viewBox="0 0 1676.42 566.93">
    <defs>
        <style>.cls-1{font-size:291.79px;font-family:Outfit-SemiBold, Outfit;font-weight:600;letter-spacing:0.02em;}.cls-1,.cls-4{fill:#1d1d1b;}.cls-2{letter-spacing:0.02em;}.cls-3{letter-spacing:0.02em;}</style>
    </defs>
    <g id="Livello_1" data-name="Livello 1">
        <text class="cls-1" transform="translate(555.56 385.1)">
            S
            <tspan class="cls-2" x="170.69" y="0">w</tspan>
            <tspan class="cls-3" x="400.04" y="0">idge</tspan>
        </text>
        <path class="cls-4" d="M179.48,321.08c-30.16-31.59-31-81.93-1.82-114.61,28.28-31.72,77.53-37.14,112.11-12.33a84.26,84.26,0,0,1,29.05,100.44l-.39,1,.17,1c3.13,18.42,9.08,34,17.71,46.36l1.09,1.56,5.55.1,1.15-1.48A131,131,0,0,0,198.39,138.79c-42.49,14.39-73.89,48.8-86.15,94.4a121.13,121.13,0,0,0,11.55,90.46c17.55,31,43.63,52.92,75.42,63.47a4.81,4.81,0,0,0,6.27-5c-1.52-15.18-5-28.21-10.63-39.84C191.44,335.21,186.56,328.48,179.48,321.08Z" />
        <path class="cls-4" d="M477.14,259.44c-17.55-31-43.63-52.92-75.42-63.47a4.8,4.8,0,0,0-6.27,5c1.52,15.17,5,28.2,10.63,39.84,3.41,7,8.29,13.76,15.37,21.17,30.16,31.59,31,81.93,1.82,114.61C395,408.34,345.74,413.76,311.16,389a84.25,84.25,0,0,1-29.05-100.44l.39-1-.17-1c-3.13-18.43-9.08-34-17.71-46.37l-1.09-1.55-5.55-.1-1.15,1.47A131,131,0,0,0,360.22,451.29a131.88,131.88,0,0,0,42.32-7c42.49-14.39,73.89-48.8,86.15-94.4A121.12,121.12,0,0,0,477.14,259.44Z" />
    </g>
</svg>