<svg xmlns="http://www.w3.org/2000/svg" viewBox="0 0 566.93 566.93">
    <defs>
        <style>.cls-1{fill:#fff;}</style>
    </defs>
    <g id="Livello_1" data-name="Livello 1">
        <path class="cls-1" d="M159.84,314.56C128.7,282,127.87,230,158,196.24c29.2-32.74,80-38.34,115.75-12.72a87,87,0,0,1,30,103.68l-.21.53.09.55c3.12,18.37,9.05,33.89,17.61,46.15l.58.83,3.82.07.6-.78A130.68,130.68,0,0,0,180.82,130.69c-42.39,14.36-73.72,48.7-86,94.23a120.66,120.66,0,0,0,11.51,90.13c17.52,30.93,43.55,52.84,75.26,63.36a2.87,2.87,0,0,0,1,.16,3.1,3.1,0,0,0,3.06-3.37c-1.51-15.13-5-28.11-10.58-39.69C171.7,328.58,166.86,321.92,159.84,314.56Z" />
        <path class="cls-1" d="M460.56,251.88C443,221,417,199,385.29,188.51a3.08,3.08,0,0,0-4,3.22c1.51,15.14,5,28.12,10.58,39.68,3.37,7,8.2,13.61,15.22,21,31.14,32.6,32,84.57,1.89,118.31-29.2,32.74-80,38.34-115.75,12.73a87,87,0,0,1-30-103.69l.22-.52-.1-.55c-3.11-18.37-9-33.9-17.6-46.16l-.58-.82-3.82-.07-.61.78A130.68,130.68,0,0,0,343.89,443.21a131.59,131.59,0,0,0,42.22-7c42.39-14.35,73.72-48.7,86-94.22A120.66,120.66,0,0,0,460.56,251.88Z" />
    </g>
</svg>